<svg width="20" height="20" viewBox="0 0 20 20" fill="none" xmlns="http://www.w3.org/2000/svg">
<path d="M14.166 1.66797H5.83268C3.5315 1.66797 1.66602 3.53345 1.66602 5.83464V14.168C1.66602 16.4692 3.5315 18.3346 5.83268 18.3346H14.166C16.4672 18.3346 18.3327 16.4692 18.3327 14.168V5.83464C18.3327 3.53345 16.4672 1.66797 14.166 1.66797Z" stroke="#EEEEEE" stroke-width="1.66667" stroke-linecap="round" stroke-linejoin="round"/>
<path d="M13.3337 9.4733C13.4366 10.1668 13.3181 10.8751 12.9952 11.4975C12.6723 12.1198 12.1614 12.6245 11.5351 12.9397C10.9088 13.2549 10.1991 13.3646 9.5069 13.2532C8.81468 13.1419 8.17521 12.815 7.67944 12.3193C7.18367 11.8235 6.85685 11.184 6.74546 10.4918C6.63408 9.79959 6.74379 9.08988 7.05901 8.46361C7.37423 7.83734 7.8789 7.32642 8.50123 7.0035C9.12356 6.68058 9.83187 6.56212 10.5254 6.66496C11.2328 6.76987 11.8878 7.09952 12.3935 7.60522C12.8992 8.11092 13.2288 8.76586 13.3337 9.4733Z" stroke="#EEEEEE" stroke-width="1.66667" stroke-linecap="round" stroke-linejoin="round"/>
<path d="M14.584 5.41797H14.5923" stroke="#EEEEEE" stroke-width="1.66667" stroke-linecap="round" stroke-linejoin="round"/>
</svg>
